<svg xmlns="http://www.w3.org/2000/svg" viewBox="0 0 512 512" > <path d="M437,75C388.7,26.6,324.4,0,256,0S123.3,26.6,75,75S0,187.6,0,256s26.6,132.7,75,181c48.4,48.4,112.6,75,181,75 s132.7-26.6,181-75s75-112.6,75-181S485.4,123.3,437,75z M256,470.6c-118.4,0-214.6-96.3-214.6-214.6S137.6,41.4,256,41.4 S470.6,137.6,470.6,256S374.4,470.6,256,470.6z"/> <path d="M341.2,312l-64.5-64.5V114.8c0-11.4-9.3-20.7-20.7-20.7c-11.4,0-20.7,9.3-20.7,20.7V256c0,5.5,2.2,10.7,6.1,14.6 l70.6,70.6c4,4,9.3,6.1,14.6,6.1s10.6-2,14.6-6.1C349.3,333.1,349.3,320,341.2,312z"/> </svg>