<svg id="svg" version="1.1" width="400" height="400" xmlns="http://www.w3.org/2000/svg" xmlns:xlink="http://www.w3.org/1999/xlink" style="display: block;"><g id="svgg"><path id="path0" d="M77.329 65.478 C 75.767 65.783,75.424 66.701,75.264 71.009 L 75.112 75.114 70.770 75.263 C 64.857 75.466,65.400 73.801,65.403 91.720 C 65.406 112.842,65.536 113.323,71.449 114.088 C 75.691 114.637,75.600 114.592,75.600 116.133 C 75.600 122.236,76.943 123.690,83.200 124.363 L 85.400 124.600 85.661 127.523 C 86.140 132.888,87.078 133.845,92.320 134.321 L 95.400 134.600 95.679 137.680 C 96.155 142.922,97.112 143.860,102.477 144.339 L 105.400 144.600 105.679 147.680 C 106.155 152.922,107.112 153.860,112.477 154.339 L 115.400 154.600 115.679 157.680 C 116.155 162.922,117.112 163.860,122.477 164.339 L 125.400 164.600 125.661 167.523 C 126.138 172.864,127.147 173.906,132.210 174.289 L 135.126 174.510 135.407 177.755 C 135.907 183.531,136.451 184.073,142.289 184.612 C 145.547 184.913,145.279 184.533,145.766 189.551 C 146.115 193.153,147.645 194.383,151.800 194.403 C 155.302 194.420,155.200 194.252,155.200 199.984 L 155.200 205.075 151.365 205.483 C 146.298 206.023,146.057 206.266,145.457 211.455 L 145.000 215.400 141.858 215.655 C 136.788 216.067,136.067 216.788,135.655 221.858 L 135.400 225.000 131.455 225.457 C 126.276 226.056,126.022 226.305,125.489 231.309 L 125.087 235.087 121.309 235.489 C 116.309 236.021,116.021 236.309,115.489 241.309 L 115.087 245.087 111.309 245.489 C 106.311 246.021,106.021 246.311,105.490 251.295 L 105.090 255.059 101.318 255.468 C 96.317 256.010,96.010 256.316,95.469 261.304 L 95.062 265.062 91.304 265.469 C 86.319 266.010,86.010 266.319,85.469 271.304 L 85.062 275.062 81.304 275.469 C 76.319 276.010,76.010 276.319,75.469 281.304 L 75.062 285.062 71.304 285.469 C 65.145 286.137,65.219 285.878,65.210 306.800 C 65.203 325.498,64.934 324.793,72.055 324.798 L 75.109 324.800 75.265 328.996 C 75.490 335.092,74.118 334.576,90.503 334.720 C 98.024 334.786,105.960 334.662,108.138 334.444 C 113.796 333.877,113.868 333.792,114.608 326.756 L 114.844 324.512 117.775 324.290 C 122.831 323.908,123.907 322.824,124.294 317.722 L 124.512 314.844 126.756 314.608 C 131.811 314.076,132.302 313.955,133.165 313.038 C 133.918 312.236,134.688 308.318,134.793 304.758 C 134.797 304.624,136.129 304.415,137.753 304.292 C 142.856 303.906,143.861 302.873,144.339 297.523 L 144.600 294.600 147.680 294.321 C 152.922 293.845,153.860 292.888,154.339 287.523 L 154.600 284.600 157.680 284.321 C 162.922 283.845,163.860 282.888,164.339 277.523 L 164.600 274.600 167.680 274.321 C 172.922 273.845,173.860 272.888,174.339 267.523 L 174.600 264.600 177.523 264.339 C 182.888 263.860,183.845 262.922,184.321 257.680 L 184.600 254.600 187.523 254.339 C 192.888 253.860,193.845 252.922,194.321 247.680 L 194.600 244.600 200.000 244.600 L 205.400 244.600 205.679 247.680 C 206.155 252.922,207.112 253.860,212.477 254.339 L 215.400 254.600 215.679 257.680 C 216.155 262.922,217.112 263.860,222.477 264.339 L 225.400 264.600 225.661 267.523 C 226.140 272.888,227.078 273.845,232.320 274.321 L 235.400 274.600 235.661 277.523 C 236.140 282.888,237.078 283.845,242.320 284.321 L 245.400 284.600 245.661 287.523 C 246.140 292.888,247.078 293.845,252.320 294.321 L 255.400 294.600 255.661 297.523 C 256.138 302.865,257.147 303.906,262.214 304.290 L 265.134 304.511 265.384 306.955 C 265.840 311.425,266.079 312.479,266.800 313.200 C 267.521 313.921,268.575 314.160,273.045 314.616 L 275.489 314.866 275.710 317.786 C 276.092 322.830,277.179 323.907,282.278 324.294 L 285.156 324.512 285.392 326.756 C 286.132 333.792,286.204 333.877,291.862 334.444 C 294.040 334.662,301.976 334.786,309.497 334.720 C 325.882 334.576,324.510 335.092,324.735 328.996 L 324.891 324.800 327.945 324.798 C 335.066 324.793,334.797 325.498,334.790 306.800 C 334.781 285.878,334.855 286.137,328.696 285.469 L 324.938 285.062 324.531 281.304 C 323.990 276.316,323.683 276.010,318.682 275.468 L 314.910 275.059 314.510 271.295 C 313.979 266.311,313.689 266.021,308.691 265.489 L 304.913 265.087 304.511 261.309 C 303.979 256.309,303.691 256.021,298.691 255.489 L 294.913 255.087 294.511 251.309 C 293.979 246.309,293.691 246.021,288.691 245.489 L 284.913 245.087 284.511 241.309 C 283.979 236.309,283.691 236.021,278.691 235.489 L 274.913 235.087 274.511 231.309 C 273.978 226.305,273.724 226.056,268.545 225.457 L 264.600 225.000 264.345 221.858 C 264.063 218.389,263.569 217.133,262.198 216.399 C 261.696 216.130,259.871 215.795,258.142 215.655 L 255.000 215.400 254.543 211.455 C 253.937 206.212,253.724 206.005,248.391 205.465 L 244.328 205.053 244.611 200.027 C 244.947 194.057,244.465 194.774,248.416 194.375 C 253.205 193.892,254.382 192.679,254.403 188.200 C 254.418 185.054,254.559 184.903,257.737 184.609 C 263.546 184.073,264.094 183.526,264.593 177.755 L 264.874 174.510 267.790 174.289 C 272.853 173.906,273.862 172.864,274.339 167.523 L 274.600 164.600 277.523 164.339 C 282.888 163.860,283.845 162.922,284.321 157.680 L 284.600 154.600 287.523 154.339 C 292.888 153.860,293.845 152.922,294.321 147.680 L 294.600 144.600 297.523 144.339 C 302.888 143.860,303.845 142.922,304.321 137.680 L 304.600 134.600 307.523 134.339 C 312.888 133.860,313.845 132.922,314.321 127.680 L 314.600 124.600 316.800 124.363 C 322.781 123.720,323.494 123.149,324.091 118.528 C 324.636 114.312,324.593 114.400,326.133 114.400 C 334.278 114.400,334.594 113.554,334.597 91.720 C 334.600 73.801,335.143 75.466,329.230 75.263 L 324.888 75.114 324.734 70.962 C 324.510 64.916,325.873 65.424,309.497 65.280 C 286.813 65.080,286.242 65.227,285.590 71.426 C 285.383 73.392,285.211 75.020,285.207 75.045 C 285.203 75.069,283.805 75.211,282.100 75.359 C 276.194 75.873,275.873 76.193,275.361 82.078 L 275.094 85.156 272.847 85.398 C 265.967 86.141,266.141 85.967,265.398 92.847 L 265.156 95.094 262.078 95.361 C 256.202 95.872,255.872 96.200,255.364 102.049 L 255.099 105.099 252.049 105.364 C 247.663 105.745,246.529 106.190,246.038 107.723 C 245.813 108.425,245.510 110.372,245.364 112.049 L 245.099 115.099 242.049 115.364 C 236.205 115.872,235.872 116.205,235.364 122.049 L 235.099 125.099 232.049 125.364 C 226.205 125.872,225.872 126.205,225.364 132.049 L 225.099 135.099 222.049 135.364 C 216.205 135.872,215.872 136.205,215.364 142.049 L 215.099 145.099 212.049 145.364 C 206.197 145.872,205.872 146.199,205.359 152.100 L 205.090 155.200 200.000 155.200 L 194.910 155.200 194.641 152.100 C 194.128 146.199,193.803 145.872,187.951 145.364 L 184.901 145.099 184.636 142.049 C 184.128 136.205,183.795 135.872,177.951 135.364 L 174.901 135.099 174.636 132.049 C 174.490 130.372,174.187 128.425,173.962 127.723 C 173.471 126.190,172.337 125.745,167.951 125.364 L 164.901 125.099 164.636 122.049 C 164.128 116.205,163.795 115.872,157.951 115.364 L 154.901 115.099 154.636 112.049 C 154.128 106.205,153.795 105.872,147.951 105.364 L 144.901 105.099 144.636 102.049 C 144.128 96.197,143.801 95.872,137.900 95.359 C 136.195 95.211,134.797 95.069,134.793 95.045 C 134.789 95.020,134.617 93.392,134.410 91.426 C 133.902 86.597,133.404 86.096,128.627 85.603 C 124.445 85.171,125.017 85.775,124.518 81.264 C 123.973 76.327,123.673 76.027,118.736 75.482 C 114.225 74.983,114.829 75.555,114.397 71.373 C 113.904 66.596,113.403 66.098,108.574 65.590 C 105.121 65.227,79.099 65.134,77.329 65.478 " stroke="none" fill="#000000" fill-rule="evenodd"></path><path id="path1" d="M77.329 65.478 C 75.767 65.783,75.424 66.701,75.264 71.009 L 75.112 75.114 70.770 75.263 C 64.857 75.466,65.400 73.801,65.403 91.720 C 65.406 112.842,65.536 113.323,71.449 114.088 C 75.691 114.637,75.600 114.592,75.600 116.133 C 75.600 122.236,76.943 123.690,83.200 124.363 L 85.400 124.600 85.661 127.523 C 86.140 132.888,87.078 133.845,92.320 134.321 L 95.400 134.600 95.679 137.680 C 96.155 142.922,97.112 143.860,102.477 144.339 L 105.400 144.600 105.679 147.680 C 106.155 152.922,107.112 153.860,112.477 154.339 L 115.400 154.600 115.679 157.680 C 116.155 162.922,117.112 163.860,122.477 164.339 L 125.400 164.600 125.661 167.523 C 126.138 172.864,127.147 173.906,132.210 174.289 L 135.126 174.510 135.407 177.755 C 135.907 183.531,136.451 184.073,142.289 184.612 C 145.547 184.913,145.279 184.533,145.766 189.551 C 146.115 193.153,147.645 194.383,151.800 194.403 C 155.302 194.420,155.200 194.252,155.200 199.984 L 155.200 205.075 151.365 205.483 C 146.298 206.023,146.057 206.266,145.457 211.455 L 145.000 215.400 141.858 215.655 C 136.788 216.067,136.067 216.788,135.655 221.858 L 135.400 225.000 131.455 225.457 C 126.276 226.056,126.022 226.305,125.489 231.309 L 125.087 235.087 121.309 235.489 C 116.309 236.021,116.021 236.309,115.489 241.309 L 115.087 245.087 111.309 245.489 C 106.311 246.021,106.021 246.311,105.490 251.295 L 105.090 255.059 101.318 255.468 C 96.317 256.010,96.010 256.316,95.469 261.304 L 95.062 265.062 91.304 265.469 C 86.319 266.010,86.010 266.319,85.469 271.304 L 85.062 275.062 81.304 275.469 C 76.319 276.010,76.010 276.319,75.469 281.304 L 75.062 285.062 71.304 285.469 C 65.145 286.137,65.219 285.878,65.210 306.800 C 65.203 325.498,64.934 324.793,72.055 324.798 L 75.109 324.800 75.265 328.996 C 75.490 335.092,74.118 334.576,90.503 334.720 C 98.024 334.786,105.960 334.662,108.138 334.444 C 113.796 333.877,113.868 333.792,114.608 326.756 L 114.844 324.512 117.775 324.290 C 122.831 323.908,123.907 322.824,124.294 317.722 L 124.512 314.844 126.756 314.608 C 131.811 314.076,132.302 313.955,133.165 313.038 C 133.918 312.236,134.688 308.318,134.793 304.758 C 134.797 304.624,136.129 304.415,137.753 304.292 C 142.856 303.906,143.861 302.873,144.339 297.523 L 144.600 294.600 147.680 294.321 C 152.922 293.845,153.860 292.888,154.339 287.523 L 154.600 284.600 157.680 284.321 C 162.922 283.845,163.860 282.888,164.339 277.523 L 164.600 274.600 167.680 274.321 C 172.922 273.845,173.860 272.888,174.339 267.523 L 174.600 264.600 177.523 264.339 C 182.888 263.860,183.845 262.922,184.321 257.680 L 184.600 254.600 187.523 254.339 C 192.888 253.860,193.845 252.922,194.321 247.680 L 194.600 244.600 200.000 244.600 L 205.400 244.600 205.679 247.680 C 206.155 252.922,207.112 253.860,212.477 254.339 L 215.400 254.600 215.679 257.680 C 216.155 262.922,217.112 263.860,222.477 264.339 L 225.400 264.600 225.661 267.523 C 226.140 272.888,227.078 273.845,232.320 274.321 L 235.400 274.600 235.661 277.523 C 236.140 282.888,237.078 283.845,242.320 284.321 L 245.400 284.600 245.661 287.523 C 246.140 292.888,247.078 293.845,252.320 294.321 L 255.400 294.600 255.661 297.523 C 256.138 302.865,257.147 303.906,262.214 304.290 L 265.134 304.511 265.384 306.955 C 265.840 311.425,266.079 312.479,266.800 313.200 C 267.521 313.921,268.575 314.160,273.045 314.616 L 275.489 314.866 275.710 317.786 C 276.092 322.830,277.179 323.907,282.278 324.294 L 285.156 324.512 285.392 326.756 C 286.132 333.792,286.204 333.877,291.862 334.444 C 294.040 334.662,301.976 334.786,309.497 334.720 C 325.882 334.576,324.510 335.092,324.735 328.996 L 324.891 324.800 327.945 324.798 C 335.066 324.793,334.797 325.498,334.790 306.800 C 334.781 285.878,334.855 286.137,328.696 285.469 L 324.938 285.062 324.531 281.304 C 323.990 276.316,323.683 276.010,318.682 275.468 L 314.910 275.059 314.510 271.295 C 313.979 266.311,313.689 266.021,308.691 265.489 L 304.913 265.087 304.511 261.309 C 303.979 256.309,303.691 256.021,298.691 255.489 L 294.913 255.087 294.511 251.309 C 293.979 246.309,293.691 246.021,288.691 245.489 L 284.913 245.087 284.511 241.309 C 283.979 236.309,283.691 236.021,278.691 235.489 L 274.913 235.087 274.511 231.309 C 273.978 226.305,273.724 226.056,268.545 225.457 L 264.600 225.000 264.345 221.858 C 264.063 218.389,263.569 217.133,262.198 216.399 C 261.696 216.130,259.871 215.795,258.142 215.655 L 255.000 215.400 254.543 211.455 C 253.937 206.212,253.724 206.005,248.391 205.465 L 244.328 205.053 244.611 200.027 C 244.947 194.057,244.465 194.774,248.416 194.375 C 253.205 193.892,254.382 192.679,254.403 188.200 C 254.418 185.054,254.559 184.903,257.737 184.609 C 263.546 184.073,264.094 183.526,264.593 177.755 L 264.874 174.510 267.790 174.289 C 272.853 173.906,273.862 172.864,274.339 167.523 L 274.600 164.600 277.523 164.339 C 282.888 163.860,283.845 162.922,284.321 157.680 L 284.600 154.600 287.523 154.339 C 292.888 153.860,293.845 152.922,294.321 147.680 L 294.600 144.600 297.523 144.339 C 302.888 143.860,303.845 142.922,304.321 137.680 L 304.600 134.600 307.523 134.339 C 312.888 133.860,313.845 132.922,314.321 127.680 L 314.600 124.600 316.800 124.363 C 322.781 123.720,323.494 123.149,324.091 118.528 C 324.636 114.312,324.593 114.400,326.133 114.400 C 334.278 114.400,334.594 113.554,334.597 91.720 C 334.600 73.801,335.143 75.466,329.230 75.263 L 324.888 75.114 324.734 70.962 C 324.510 64.916,325.873 65.424,309.497 65.280 C 286.813 65.080,286.242 65.227,285.590 71.426 C 285.383 73.392,285.211 75.020,285.207 75.045 C 285.203 75.069,283.805 75.211,282.100 75.359 C 276.194 75.873,275.873 76.193,275.361 82.078 L 275.094 85.156 272.847 85.398 C 265.967 86.141,266.141 85.967,265.398 92.847 L 265.156 95.094 262.078 95.361 C 256.202 95.872,255.872 96.200,255.364 102.049 L 255.099 105.099 252.049 105.364 C 247.663 105.745,246.529 106.190,246.038 107.723 C 245.813 108.425,245.510 110.372,245.364 112.049 L 245.099 115.099 242.049 115.364 C 236.205 115.872,235.872 116.205,235.364 122.049 L 235.099 125.099 232.049 125.364 C 226.205 125.872,225.872 126.205,225.364 132.049 L 225.099 135.099 222.049 135.364 C 216.205 135.872,215.872 136.205,215.364 142.049 L 215.099 145.099 212.049 145.364 C 206.197 145.872,205.872 146.199,205.359 152.100 L 205.090 155.200 200.000 155.200 L 194.910 155.200 194.641 152.100 C 194.128 146.199,193.803 145.872,187.951 145.364 L 184.901 145.099 184.636 142.049 C 184.128 136.205,183.795 135.872,177.951 135.364 L 174.901 135.099 174.636 132.049 C 174.490 130.372,174.187 128.425,173.962 127.723 C 173.471 126.190,172.337 125.745,167.951 125.364 L 164.901 125.099 164.636 122.049 C 164.128 116.205,163.795 115.872,157.951 115.364 L 154.901 115.099 154.636 112.049 C 154.128 106.205,153.795 105.872,147.951 105.364 L 144.901 105.099 144.636 102.049 C 144.128 96.197,143.801 95.872,137.900 95.359 C 136.195 95.211,134.797 95.069,134.793 95.045 C 134.789 95.020,134.617 93.392,134.410 91.426 C 133.902 86.597,133.404 86.096,128.627 85.603 C 124.445 85.171,125.017 85.775,124.518 81.264 C 123.973 76.327,123.673 76.027,118.736 75.482 C 114.225 74.983,114.829 75.555,114.397 71.373 C 113.904 66.596,113.403 66.098,108.574 65.590 C 105.121 65.227,79.099 65.134,77.329 65.478 " stroke="none" fill="#000000" fill-rule="evenodd"></path><path id="path2" d="M77.329 65.478 C 75.767 65.783,75.424 66.701,75.264 71.009 L 75.112 75.114 70.770 75.263 C 64.857 75.466,65.400 73.801,65.403 91.720 C 65.406 112.842,65.536 113.323,71.449 114.088 C 75.691 114.637,75.600 114.592,75.600 116.133 C 75.600 122.236,76.943 123.690,83.200 124.363 L 85.400 124.600 85.661 127.523 C 86.140 132.888,87.078 133.845,92.320 134.321 L 95.400 134.600 95.679 137.680 C 96.155 142.922,97.112 143.860,102.477 144.339 L 105.400 144.600 105.679 147.680 C 106.155 152.922,107.112 153.860,112.477 154.339 L 115.400 154.600 115.679 157.680 C 116.155 162.922,117.112 163.860,122.477 164.339 L 125.400 164.600 125.661 167.523 C 126.138 172.864,127.147 173.906,132.210 174.289 L 135.126 174.510 135.407 177.755 C 135.907 183.531,136.451 184.073,142.289 184.612 C 145.547 184.913,145.279 184.533,145.766 189.551 C 146.115 193.153,147.645 194.383,151.800 194.403 C 155.302 194.420,155.200 194.252,155.200 199.984 L 155.200 205.075 151.365 205.483 C 146.298 206.023,146.057 206.266,145.457 211.455 L 145.000 215.400 141.858 215.655 C 136.788 216.067,136.067 216.788,135.655 221.858 L 135.400 225.000 131.455 225.457 C 126.276 226.056,126.022 226.305,125.489 231.309 L 125.087 235.087 121.309 235.489 C 116.309 236.021,116.021 236.309,115.489 241.309 L 115.087 245.087 111.309 245.489 C 106.311 246.021,106.021 246.311,105.490 251.295 L 105.090 255.059 101.318 255.468 C 96.317 256.010,96.010 256.316,95.469 261.304 L 95.062 265.062 91.304 265.469 C 86.319 266.010,86.010 266.319,85.469 271.304 L 85.062 275.062 81.304 275.469 C 76.319 276.010,76.010 276.319,75.469 281.304 L 75.062 285.062 71.304 285.469 C 65.145 286.137,65.219 285.878,65.210 306.800 C 65.203 325.498,64.934 324.793,72.055 324.798 L 75.109 324.800 75.265 328.996 C 75.490 335.092,74.118 334.576,90.503 334.720 C 98.024 334.786,105.960 334.662,108.138 334.444 C 113.796 333.877,113.868 333.792,114.608 326.756 L 114.844 324.512 117.775 324.290 C 122.831 323.908,123.907 322.824,124.294 317.722 L 124.512 314.844 126.756 314.608 C 131.811 314.076,132.302 313.955,133.165 313.038 C 133.918 312.236,134.688 308.318,134.793 304.758 C 134.797 304.624,136.129 304.415,137.753 304.292 C 142.856 303.906,143.861 302.873,144.339 297.523 L 144.600 294.600 147.680 294.321 C 152.922 293.845,153.860 292.888,154.339 287.523 L 154.600 284.600 157.680 284.321 C 162.922 283.845,163.860 282.888,164.339 277.523 L 164.600 274.600 167.680 274.321 C 172.922 273.845,173.860 272.888,174.339 267.523 L 174.600 264.600 177.523 264.339 C 182.888 263.860,183.845 262.922,184.321 257.680 L 184.600 254.600 187.523 254.339 C 192.888 253.860,193.845 252.922,194.321 247.680 L 194.600 244.600 200.000 244.600 L 205.400 244.600 205.679 247.680 C 206.155 252.922,207.112 253.860,212.477 254.339 L 215.400 254.600 215.679 257.680 C 216.155 262.922,217.112 263.860,222.477 264.339 L 225.400 264.600 225.661 267.523 C 226.140 272.888,227.078 273.845,232.320 274.321 L 235.400 274.600 235.661 277.523 C 236.140 282.888,237.078 283.845,242.320 284.321 L 245.400 284.600 245.661 287.523 C 246.140 292.888,247.078 293.845,252.320 294.321 L 255.400 294.600 255.661 297.523 C 256.138 302.865,257.147 303.906,262.214 304.290 L 265.134 304.511 265.384 306.955 C 265.840 311.425,266.079 312.479,266.800 313.200 C 267.521 313.921,268.575 314.160,273.045 314.616 L 275.489 314.866 275.710 317.786 C 276.092 322.830,277.179 323.907,282.278 324.294 L 285.156 324.512 285.392 326.756 C 286.132 333.792,286.204 333.877,291.862 334.444 C 294.040 334.662,301.976 334.786,309.497 334.720 C 325.882 334.576,324.510 335.092,324.735 328.996 L 324.891 324.800 327.945 324.798 C 335.066 324.793,334.797 325.498,334.790 306.800 C 334.781 285.878,334.855 286.137,328.696 285.469 L 324.938 285.062 324.531 281.304 C 323.990 276.316,323.683 276.010,318.682 275.468 L 314.910 275.059 314.510 271.295 C 313.979 266.311,313.689 266.021,308.691 265.489 L 304.913 265.087 304.511 261.309 C 303.979 256.309,303.691 256.021,298.691 255.489 L 294.913 255.087 294.511 251.309 C 293.979 246.309,293.691 246.021,288.691 245.489 L 284.913 245.087 284.511 241.309 C 283.979 236.309,283.691 236.021,278.691 235.489 L 274.913 235.087 274.511 231.309 C 273.978 226.305,273.724 226.056,268.545 225.457 L 264.600 225.000 264.345 221.858 C 264.063 218.389,263.569 217.133,262.198 216.399 C 261.696 216.130,259.871 215.795,258.142 215.655 L 255.000 215.400 254.543 211.455 C 253.937 206.212,253.724 206.005,248.391 205.465 L 244.328 205.053 244.611 200.027 C 244.947 194.057,244.465 194.774,248.416 194.375 C 253.205 193.892,254.382 192.679,254.403 188.200 C 254.418 185.054,254.559 184.903,257.737 184.609 C 263.546 184.073,264.094 183.526,264.593 177.755 L 264.874 174.510 267.790 174.289 C 272.853 173.906,273.862 172.864,274.339 167.523 L 274.600 164.600 277.523 164.339 C 282.888 163.860,283.845 162.922,284.321 157.680 L 284.600 154.600 287.523 154.339 C 292.888 153.860,293.845 152.922,294.321 147.680 L 294.600 144.600 297.523 144.339 C 302.888 143.860,303.845 142.922,304.321 137.680 L 304.600 134.600 307.523 134.339 C 312.888 133.860,313.845 132.922,314.321 127.680 L 314.600 124.600 316.800 124.363 C 322.781 123.720,323.494 123.149,324.091 118.528 C 324.636 114.312,324.593 114.400,326.133 114.400 C 334.278 114.400,334.594 113.554,334.597 91.720 C 334.600 73.801,335.143 75.466,329.230 75.263 L 324.888 75.114 324.734 70.962 C 324.510 64.916,325.873 65.424,309.497 65.280 C 286.813 65.080,286.242 65.227,285.590 71.426 C 285.383 73.392,285.211 75.020,285.207 75.045 C 285.203 75.069,283.805 75.211,282.100 75.359 C 276.194 75.873,275.873 76.193,275.361 82.078 L 275.094 85.156 272.847 85.398 C 265.967 86.141,266.141 85.967,265.398 92.847 L 265.156 95.094 262.078 95.361 C 256.202 95.872,255.872 96.200,255.364 102.049 L 255.099 105.099 252.049 105.364 C 247.663 105.745,246.529 106.190,246.038 107.723 C 245.813 108.425,245.510 110.372,245.364 112.049 L 245.099 115.099 242.049 115.364 C 236.205 115.872,235.872 116.205,235.364 122.049 L 235.099 125.099 232.049 125.364 C 226.205 125.872,225.872 126.205,225.364 132.049 L 225.099 135.099 222.049 135.364 C 216.205 135.872,215.872 136.205,215.364 142.049 L 215.099 145.099 212.049 145.364 C 206.197 145.872,205.872 146.199,205.359 152.100 L 205.090 155.200 200.000 155.200 L 194.910 155.200 194.641 152.100 C 194.128 146.199,193.803 145.872,187.951 145.364 L 184.901 145.099 184.636 142.049 C 184.128 136.205,183.795 135.872,177.951 135.364 L 174.901 135.099 174.636 132.049 C 174.490 130.372,174.187 128.425,173.962 127.723 C 173.471 126.190,172.337 125.745,167.951 125.364 L 164.901 125.099 164.636 122.049 C 164.128 116.205,163.795 115.872,157.951 115.364 L 154.901 115.099 154.636 112.049 C 154.128 106.205,153.795 105.872,147.951 105.364 L 144.901 105.099 144.636 102.049 C 144.128 96.197,143.801 95.872,137.900 95.359 C 136.195 95.211,134.797 95.069,134.793 95.045 C 134.789 95.020,134.617 93.392,134.410 91.426 C 133.902 86.597,133.404 86.096,128.627 85.603 C 124.445 85.171,125.017 85.775,124.518 81.264 C 123.973 76.327,123.673 76.027,118.736 75.482 C 114.225 74.983,114.829 75.555,114.397 71.373 C 113.904 66.596,113.403 66.098,108.574 65.590 C 105.121 65.227,79.099 65.134,77.329 65.478 " stroke="none" fill="#000000" fill-rule="evenodd"></path><path id="path3" d="M77.329 65.478 C 75.767 65.783,75.424 66.701,75.264 71.009 L 75.112 75.114 70.770 75.263 C 64.857 75.466,65.400 73.801,65.403 91.720 C 65.406 112.842,65.536 113.323,71.449 114.088 C 75.691 114.637,75.600 114.592,75.600 116.133 C 75.600 122.236,76.943 123.690,83.200 124.363 L 85.400 124.600 85.661 127.523 C 86.140 132.888,87.078 133.845,92.320 134.321 L 95.400 134.600 95.679 137.680 C 96.155 142.922,97.112 143.860,102.477 144.339 L 105.400 144.600 105.679 147.680 C 106.155 152.922,107.112 153.860,112.477 154.339 L 115.400 154.600 115.679 157.680 C 116.155 162.922,117.112 163.860,122.477 164.339 L 125.400 164.600 125.661 167.523 C 126.138 172.864,127.147 173.906,132.210 174.289 L 135.126 174.510 135.407 177.755 C 135.907 183.531,136.451 184.073,142.289 184.612 C 145.547 184.913,145.279 184.533,145.766 189.551 C 146.115 193.153,147.645 194.383,151.800 194.403 C 155.302 194.420,155.200 194.252,155.200 199.984 L 155.200 205.075 151.365 205.483 C 146.298 206.023,146.057 206.266,145.457 211.455 L 145.000 215.400 141.858 215.655 C 136.788 216.067,136.067 216.788,135.655 221.858 L 135.400 225.000 131.455 225.457 C 126.276 226.056,126.022 226.305,125.489 231.309 L 125.087 235.087 121.309 235.489 C 116.309 236.021,116.021 236.309,115.489 241.309 L 115.087 245.087 111.309 245.489 C 106.311 246.021,106.021 246.311,105.490 251.295 L 105.090 255.059 101.318 255.468 C 96.317 256.010,96.010 256.316,95.469 261.304 L 95.062 265.062 91.304 265.469 C 86.319 266.010,86.010 266.319,85.469 271.304 L 85.062 275.062 81.304 275.469 C 76.319 276.010,76.010 276.319,75.469 281.304 L 75.062 285.062 71.304 285.469 C 65.145 286.137,65.219 285.878,65.210 306.800 C 65.203 325.498,64.934 324.793,72.055 324.798 L 75.109 324.800 75.265 328.996 C 75.490 335.092,74.118 334.576,90.503 334.720 C 98.024 334.786,105.960 334.662,108.138 334.444 C 113.796 333.877,113.868 333.792,114.608 326.756 L 114.844 324.512 117.775 324.290 C 122.831 323.908,123.907 322.824,124.294 317.722 L 124.512 314.844 126.756 314.608 C 131.811 314.076,132.302 313.955,133.165 313.038 C 133.918 312.236,134.688 308.318,134.793 304.758 C 134.797 304.624,136.129 304.415,137.753 304.292 C 142.856 303.906,143.861 302.873,144.339 297.523 L 144.600 294.600 147.680 294.321 C 152.922 293.845,153.860 292.888,154.339 287.523 L 154.600 284.600 157.680 284.321 C 162.922 283.845,163.860 282.888,164.339 277.523 L 164.600 274.600 167.680 274.321 C 172.922 273.845,173.860 272.888,174.339 267.523 L 174.600 264.600 177.523 264.339 C 182.888 263.860,183.845 262.922,184.321 257.680 L 184.600 254.600 187.523 254.339 C 192.888 253.860,193.845 252.922,194.321 247.680 L 194.600 244.600 200.000 244.600 L 205.400 244.600 205.679 247.680 C 206.155 252.922,207.112 253.860,212.477 254.339 L 215.400 254.600 215.679 257.680 C 216.155 262.922,217.112 263.860,222.477 264.339 L 225.400 264.600 225.661 267.523 C 226.140 272.888,227.078 273.845,232.320 274.321 L 235.400 274.600 235.661 277.523 C 236.140 282.888,237.078 283.845,242.320 284.321 L 245.400 284.600 245.661 287.523 C 246.140 292.888,247.078 293.845,252.320 294.321 L 255.400 294.600 255.661 297.523 C 256.138 302.865,257.147 303.906,262.214 304.290 L 265.134 304.511 265.384 306.955 C 265.840 311.425,266.079 312.479,266.800 313.200 C 267.521 313.921,268.575 314.160,273.045 314.616 L 275.489 314.866 275.710 317.786 C 276.092 322.830,277.179 323.907,282.278 324.294 L 285.156 324.512 285.392 326.756 C 286.132 333.792,286.204 333.877,291.862 334.444 C 294.040 334.662,301.976 334.786,309.497 334.720 C 325.882 334.576,324.510 335.092,324.735 328.996 L 324.891 324.800 327.945 324.798 C 335.066 324.793,334.797 325.498,334.790 306.800 C 334.781 285.878,334.855 286.137,328.696 285.469 L 324.938 285.062 324.531 281.304 C 323.990 276.316,323.683 276.010,318.682 275.468 L 314.910 275.059 314.510 271.295 C 313.979 266.311,313.689 266.021,308.691 265.489 L 304.913 265.087 304.511 261.309 C 303.979 256.309,303.691 256.021,298.691 255.489 L 294.913 255.087 294.511 251.309 C 293.979 246.309,293.691 246.021,288.691 245.489 L 284.913 245.087 284.511 241.309 C 283.979 236.309,283.691 236.021,278.691 235.489 L 274.913 235.087 274.511 231.309 C 273.978 226.305,273.724 226.056,268.545 225.457 L 264.600 225.000 264.345 221.858 C 264.063 218.389,263.569 217.133,262.198 216.399 C 261.696 216.130,259.871 215.795,258.142 215.655 L 255.000 215.400 254.543 211.455 C 253.937 206.212,253.724 206.005,248.391 205.465 L 244.328 205.053 244.611 200.027 C 244.947 194.057,244.465 194.774,248.416 194.375 C 253.205 193.892,254.382 192.679,254.403 188.200 C 254.418 185.054,254.559 184.903,257.737 184.609 C 263.546 184.073,264.094 183.526,264.593 177.755 L 264.874 174.510 267.790 174.289 C 272.853 173.906,273.862 172.864,274.339 167.523 L 274.600 164.600 277.523 164.339 C 282.888 163.860,283.845 162.922,284.321 157.680 L 284.600 154.600 287.523 154.339 C 292.888 153.860,293.845 152.922,294.321 147.680 L 294.600 144.600 297.523 144.339 C 302.888 143.860,303.845 142.922,304.321 137.680 L 304.600 134.600 307.523 134.339 C 312.888 133.860,313.845 132.922,314.321 127.680 L 314.600 124.600 316.800 124.363 C 322.781 123.720,323.494 123.149,324.091 118.528 C 324.636 114.312,324.593 114.400,326.133 114.400 C 334.278 114.400,334.594 113.554,334.597 91.720 C 334.600 73.801,335.143 75.466,329.230 75.263 L 324.888 75.114 324.734 70.962 C 324.510 64.916,325.873 65.424,309.497 65.280 C 286.813 65.080,286.242 65.227,285.590 71.426 C 285.383 73.392,285.211 75.020,285.207 75.045 C 285.203 75.069,283.805 75.211,282.100 75.359 C 276.194 75.873,275.873 76.193,275.361 82.078 L 275.094 85.156 272.847 85.398 C 265.967 86.141,266.141 85.967,265.398 92.847 L 265.156 95.094 262.078 95.361 C 256.202 95.872,255.872 96.200,255.364 102.049 L 255.099 105.099 252.049 105.364 C 247.663 105.745,246.529 106.190,246.038 107.723 C 245.813 108.425,245.510 110.372,245.364 112.049 L 245.099 115.099 242.049 115.364 C 236.205 115.872,235.872 116.205,235.364 122.049 L 235.099 125.099 232.049 125.364 C 226.205 125.872,225.872 126.205,225.364 132.049 L 225.099 135.099 222.049 135.364 C 216.205 135.872,215.872 136.205,215.364 142.049 L 215.099 145.099 212.049 145.364 C 206.197 145.872,205.872 146.199,205.359 152.100 L 205.090 155.200 200.000 155.200 L 194.910 155.200 194.641 152.100 C 194.128 146.199,193.803 145.872,187.951 145.364 L 184.901 145.099 184.636 142.049 C 184.128 136.205,183.795 135.872,177.951 135.364 L 174.901 135.099 174.636 132.049 C 174.490 130.372,174.187 128.425,173.962 127.723 C 173.471 126.190,172.337 125.745,167.951 125.364 L 164.901 125.099 164.636 122.049 C 164.128 116.205,163.795 115.872,157.951 115.364 L 154.901 115.099 154.636 112.049 C 154.128 106.205,153.795 105.872,147.951 105.364 L 144.901 105.099 144.636 102.049 C 144.128 96.197,143.801 95.872,137.900 95.359 C 136.195 95.211,134.797 95.069,134.793 95.045 C 134.789 95.020,134.617 93.392,134.410 91.426 C 133.902 86.597,133.404 86.096,128.627 85.603 C 124.445 85.171,125.017 85.775,124.518 81.264 C 123.973 76.327,123.673 76.027,118.736 75.482 C 114.225 74.983,114.829 75.555,114.397 71.373 C 113.904 66.596,113.403 66.098,108.574 65.590 C 105.121 65.227,79.099 65.134,77.329 65.478 " stroke="none" fill="#000000" fill-rule="evenodd"></path><path id="path4" d="M77.329 65.478 C 75.767 65.783,75.424 66.701,75.264 71.009 L 75.112 75.114 70.770 75.263 C 64.857 75.466,65.400 73.801,65.403 91.720 C 65.406 112.842,65.536 113.323,71.449 114.088 C 75.691 114.637,75.600 114.592,75.600 116.133 C 75.600 122.236,76.943 123.690,83.200 124.363 L 85.400 124.600 85.661 127.523 C 86.140 132.888,87.078 133.845,92.320 134.321 L 95.400 134.600 95.679 137.680 C 96.155 142.922,97.112 143.860,102.477 144.339 L 105.400 144.600 105.679 147.680 C 106.155 152.922,107.112 153.860,112.477 154.339 L 115.400 154.600 115.679 157.680 C 116.155 162.922,117.112 163.860,122.477 164.339 L 125.400 164.600 125.661 167.523 C 126.138 172.864,127.147 173.906,132.210 174.289 L 135.126 174.510 135.407 177.755 C 135.907 183.531,136.451 184.073,142.289 184.612 C 145.547 184.913,145.279 184.533,145.766 189.551 C 146.115 193.153,147.645 194.383,151.800 194.403 C 155.302 194.420,155.200 194.252,155.200 199.984 L 155.200 205.075 151.365 205.483 C 146.298 206.023,146.057 206.266,145.457 211.455 L 145.000 215.400 141.858 215.655 C 136.788 216.067,136.067 216.788,135.655 221.858 L 135.400 225.000 131.455 225.457 C 126.276 226.056,126.022 226.305,125.489 231.309 L 125.087 235.087 121.309 235.489 C 116.309 236.021,116.021 236.309,115.489 241.309 L 115.087 245.087 111.309 245.489 C 106.311 246.021,106.021 246.311,105.490 251.295 L 105.090 255.059 101.318 255.468 C 96.317 256.010,96.010 256.316,95.469 261.304 L 95.062 265.062 91.304 265.469 C 86.319 266.010,86.010 266.319,85.469 271.304 L 85.062 275.062 81.304 275.469 C 76.319 276.010,76.010 276.319,75.469 281.304 L 75.062 285.062 71.304 285.469 C 65.145 286.137,65.219 285.878,65.210 306.800 C 65.203 325.498,64.934 324.793,72.055 324.798 L 75.109 324.800 75.265 328.996 C 75.490 335.092,74.118 334.576,90.503 334.720 C 98.024 334.786,105.960 334.662,108.138 334.444 C 113.796 333.877,113.868 333.792,114.608 326.756 L 114.844 324.512 117.775 324.290 C 122.831 323.908,123.907 322.824,124.294 317.722 L 124.512 314.844 126.756 314.608 C 131.811 314.076,132.302 313.955,133.165 313.038 C 133.918 312.236,134.688 308.318,134.793 304.758 C 134.797 304.624,136.129 304.415,137.753 304.292 C 142.856 303.906,143.861 302.873,144.339 297.523 L 144.600 294.600 147.680 294.321 C 152.922 293.845,153.860 292.888,154.339 287.523 L 154.600 284.600 157.680 284.321 C 162.922 283.845,163.860 282.888,164.339 277.523 L 164.600 274.600 167.680 274.321 C 172.922 273.845,173.860 272.888,174.339 267.523 L 174.600 264.600 177.523 264.339 C 182.888 263.860,183.845 262.922,184.321 257.680 L 184.600 254.600 187.523 254.339 C 192.888 253.860,193.845 252.922,194.321 247.680 L 194.600 244.600 200.000 244.600 L 205.400 244.600 205.679 247.680 C 206.155 252.922,207.112 253.860,212.477 254.339 L 215.400 254.600 215.679 257.680 C 216.155 262.922,217.112 263.860,222.477 264.339 L 225.400 264.600 225.661 267.523 C 226.140 272.888,227.078 273.845,232.320 274.321 L 235.400 274.600 235.661 277.523 C 236.140 282.888,237.078 283.845,242.320 284.321 L 245.400 284.600 245.661 287.523 C 246.140 292.888,247.078 293.845,252.320 294.321 L 255.400 294.600 255.661 297.523 C 256.138 302.865,257.147 303.906,262.214 304.290 L 265.134 304.511 265.384 306.955 C 265.840 311.425,266.079 312.479,266.800 313.200 C 267.521 313.921,268.575 314.160,273.045 314.616 L 275.489 314.866 275.710 317.786 C 276.092 322.830,277.179 323.907,282.278 324.294 L 285.156 324.512 285.392 326.756 C 286.132 333.792,286.204 333.877,291.862 334.444 C 294.040 334.662,301.976 334.786,309.497 334.720 C 325.882 334.576,324.510 335.092,324.735 328.996 L 324.891 324.800 327.945 324.798 C 335.066 324.793,334.797 325.498,334.790 306.800 C 334.781 285.878,334.855 286.137,328.696 285.469 L 324.938 285.062 324.531 281.304 C 323.990 276.316,323.683 276.010,318.682 275.468 L 314.910 275.059 314.510 271.295 C 313.979 266.311,313.689 266.021,308.691 265.489 L 304.913 265.087 304.511 261.309 C 303.979 256.309,303.691 256.021,298.691 255.489 L 294.913 255.087 294.511 251.309 C 293.979 246.309,293.691 246.021,288.691 245.489 L 284.913 245.087 284.511 241.309 C 283.979 236.309,283.691 236.021,278.691 235.489 L 274.913 235.087 274.511 231.309 C 273.978 226.305,273.724 226.056,268.545 225.457 L 264.600 225.000 264.345 221.858 C 264.063 218.389,263.569 217.133,262.198 216.399 C 261.696 216.130,259.871 215.795,258.142 215.655 L 255.000 215.400 254.543 211.455 C 253.937 206.212,253.724 206.005,248.391 205.465 L 244.328 205.053 244.611 200.027 C 244.947 194.057,244.465 194.774,248.416 194.375 C 253.205 193.892,254.382 192.679,254.403 188.200 C 254.418 185.054,254.559 184.903,257.737 184.609 C 263.546 184.073,264.094 183.526,264.593 177.755 L 264.874 174.510 267.790 174.289 C 272.853 173.906,273.862 172.864,274.339 167.523 L 274.600 164.600 277.523 164.339 C 282.888 163.860,283.845 162.922,284.321 157.680 L 284.600 154.600 287.523 154.339 C 292.888 153.860,293.845 152.922,294.321 147.680 L 294.600 144.600 297.523 144.339 C 302.888 143.860,303.845 142.922,304.321 137.680 L 304.600 134.600 307.523 134.339 C 312.888 133.860,313.845 132.922,314.321 127.680 L 314.600 124.600 316.800 124.363 C 322.781 123.720,323.494 123.149,324.091 118.528 C 324.636 114.312,324.593 114.400,326.133 114.400 C 334.278 114.400,334.594 113.554,334.597 91.720 C 334.600 73.801,335.143 75.466,329.230 75.263 L 324.888 75.114 324.734 70.962 C 324.510 64.916,325.873 65.424,309.497 65.280 C 286.813 65.080,286.242 65.227,285.590 71.426 C 285.383 73.392,285.211 75.020,285.207 75.045 C 285.203 75.069,283.805 75.211,282.100 75.359 C 276.194 75.873,275.873 76.193,275.361 82.078 L 275.094 85.156 272.847 85.398 C 265.967 86.141,266.141 85.967,265.398 92.847 L 265.156 95.094 262.078 95.361 C 256.202 95.872,255.872 96.200,255.364 102.049 L 255.099 105.099 252.049 105.364 C 247.663 105.745,246.529 106.190,246.038 107.723 C 245.813 108.425,245.510 110.372,245.364 112.049 L 245.099 115.099 242.049 115.364 C 236.205 115.872,235.872 116.205,235.364 122.049 L 235.099 125.099 232.049 125.364 C 226.205 125.872,225.872 126.205,225.364 132.049 L 225.099 135.099 222.049 135.364 C 216.205 135.872,215.872 136.205,215.364 142.049 L 215.099 145.099 212.049 145.364 C 206.197 145.872,205.872 146.199,205.359 152.100 L 205.090 155.200 200.000 155.200 L 194.910 155.200 194.641 152.100 C 194.128 146.199,193.803 145.872,187.951 145.364 L 184.901 145.099 184.636 142.049 C 184.128 136.205,183.795 135.872,177.951 135.364 L 174.901 135.099 174.636 132.049 C 174.490 130.372,174.187 128.425,173.962 127.723 C 173.471 126.190,172.337 125.745,167.951 125.364 L 164.901 125.099 164.636 122.049 C 164.128 116.205,163.795 115.872,157.951 115.364 L 154.901 115.099 154.636 112.049 C 154.128 106.205,153.795 105.872,147.951 105.364 L 144.901 105.099 144.636 102.049 C 144.128 96.197,143.801 95.872,137.900 95.359 C 136.195 95.211,134.797 95.069,134.793 95.045 C 134.789 95.020,134.617 93.392,134.410 91.426 C 133.902 86.597,133.404 86.096,128.627 85.603 C 124.445 85.171,125.017 85.775,124.518 81.264 C 123.973 76.327,123.673 76.027,118.736 75.482 C 114.225 74.983,114.829 75.555,114.397 71.373 C 113.904 66.596,113.403 66.098,108.574 65.590 C 105.121 65.227,79.099 65.134,77.329 65.478 " stroke="none" fill="#000000" fill-rule="evenodd"></path></g></svg>