<svg xmlns="http://www.w3.org/2000/svg" viewBox="0 0 512 498.2" > <path d="M402.6,356.9H386v124.8c0,22.1-35.1,21.8-35.1,0V356.9h-35.1c-7.9,0-11.9-10.2-8.9-16.7l43.5-164 c3-10.8-9.4-11.8-11-5.1l-31,109.7c-4.5,15.9-40.2,14.1-30.3-15l37.2-125.6c4.4-15.9,15-28.4,35.9-28.4c28.6,0,57.1,0,85.7,0 c20.9,0,31.5,12.6,35.9,28.4l37.3,125.6c9.9,29.1-25.8,31-30.3,15l-31-109.7c-1.6-6.6-13.9-5.7-11,5.1l43.5,164 c3.1,6.5-0.9,16.7-8.9,16.7h-34.5v124.8c0,21.8-35.6,22.1-35.6,0L402.6,356.9L402.6,356.9z M394.9,1.1c28.9,0,52.4,23.5,52.4,52.4 s-23.4,52.4-52.4,52.4s-52.4-23.4-52.4-52.4S366,1.1,394.9,1.1L394.9,1.1z M227.8,158.2v122.6c0,23.9-35.1,23.4-35.1,0V175.7 c0-12.1-17.5-11.5-17.5,0v295.6c0,35-52.6,35.1-52.6,0v-173c0-12.4-17.5-12.4-17.5,0v173c0,35-52.6,35.1-52.6,0V175.7 c0-10.9-17.5-11.5-17.5,0v105.1c0,24-35.1,22.9-35.1,0V159c0-26,21.2-47.1,47.2-47.1h133.4C206.6,111.8,227.8,132.2,227.8,158.2 L227.8,158.2z M114.6,0C143.5,0,167,23.4,167,52.4c0,28.9-23.4,52.4-52.4,52.4S62.2,81.3,62.2,52.4S85.7,0,114.6,0z"/> </svg>
