<!-- Generated by IcoMoon.io -->
<svg version="1.1" xmlns="http://www.w3.org/2000/svg" width="63" height="80" viewBox="0 0 63 80">
<title>filter</title>
<path d="M62.634 13.17c0.446 1.071 0.223 2.321-0.625 3.125l-22.009 22.009v33.125c0 1.161-0.714 2.188-1.741 2.634-0.357 0.134-0.759 0.223-1.116 0.223-0.759 0-1.473-0.268-2.009-0.848l-11.429-11.429c-0.536-0.536-0.848-1.25-0.848-2.009v-21.696l-22.009-22.009c-0.848-0.804-1.071-2.054-0.625-3.125 0.446-1.027 1.473-1.741 2.634-1.741h57.143c1.161 0 2.188 0.714 2.634 1.741z"></path>
</svg>
