<svg xmlns="http://www.w3.org/2000/svg"  viewBox="0 0 512 446.4" > <g> <path d="M336.2,257.3c-7.6,0-14.4-4.6-17.2-11.6l-12.6-31.2l-37.9,102.3c-2.7,7.3-9.7,12.1-17.4,12.1 c-0.4,0-0.7,0-1.1,0c-8.2-0.5-15.1-6.3-17-14.2l-27-112.8l-13.7,46.8c-2.3,7.9-9.6,13.4-17.8,13.4H58.1l41.9,40.6 c63.5,61,145.6,139.2,146.4,140c2.7,2.6,6.2,3.8,9.6,3.8c3.5,0,6.9-1.3,9.6-3.9c1.5-1.4,134.4-128.2,193.2-185.2H336.2z"/> <path  d="M160.5,224.8l29.4-100.7c2.4-8.1,9.9-13.5,18.3-13.4c8.4,0.2,15.7,6.1,17.6,14.3l29.1,121.4l33.3-89.9 c2.7-7.2,9.5-12,17.2-12.1c0.1,0,0.2,0,0.3,0c7.6,0,14.4,4.6,17.2,11.6l25.9,64.1h142.4c13.4-22.2,20.9-49,20.9-77.1 C512,64.1,451.5,0,377,0c-53,0-99,32.5-121,79.7C233.9,32.5,188,0,135,0C60.6,0,0,64.1,0,142.9c0,30.2,8.5,58.9,23.8,81.9 L160.5,224.8L160.5,224.8z"/> </g> </svg>
