<svg xmlns="http://www.w3.org/2000/svg"  viewBox="0 0 512 350.3"> <g> <path d="M483.4,312.9c0.6-1.8,0.9-3.7,0.9-5.7V96.7c0-10-8.1-18.1-18.1-18.1H365.6v224.1c0,3.6-0.7,7-1.8,10.2H352 c0.6-1.8,0.9-3.7,0.9-5.7V18.1c0-10-8.1-18.1-18.1-18.1H177.1c-10,0-18.1,8.1-18.1,18.1v289.1c0,2,0.3,3.9,0.9,5.7h-11.8 c-1.1-3.2-1.8-6.6-1.8-10.2V78.6H48.2c-10,0-18.1,8.1-18.1,18.1v210.5c0,2,0.3,3.9,0.9,5.7H0v37.3h512v-37.3H483.4L483.4,312.9z M84.3,239.1H58.4v-25.9h25.9V239.1z M84.3,193.7H58.4v-25.9h25.9V193.7z M84.3,149.7H58.4v-25.9h25.9V149.7z M124.7,239.1H98.8 v-25.9h25.9V239.1z M124.7,193.7H98.8v-25.9h25.9V193.7z M124.7,149.7H98.8v-25.9h25.9V149.7z M296.2,311.7h-76v-94.9h76V311.7z M256,135.5c-35.2,0-63.7-28.5-63.7-63.7c0-35.2,28.5-63.7,63.7-63.7c35.2,0,63.7,28.5,63.7,63.7S291.2,135.5,256,135.5z M420.4,239.1h-25.9v-25.9h25.9V239.1z M420.4,193.7h-25.9v-25.9h25.9V193.7z M420.4,149.7h-25.9v-25.9h25.9V149.7z M460.8,239.1 h-25.9v-25.9h25.9V239.1z M460.8,193.7h-25.9v-25.9h25.9V193.7z M460.8,149.7h-25.9v-25.9h25.9V149.7z M271.8,56h24.4v31.6h-24.4 V112h-31.6V87.6h-24.4V56h24.4V31.6h31.6V56z"/> </g> </svg>