<svg xmlns="http://www.w3.org/2000/svg"  viewBox="0 0 512 512" > <path d="M262.9,80.6c25.6,0,46.1,20.8,46.1,46.4c0,25.8-20.7,46.6-46.1,46.6c-25.6-0.1-46.2-20.9-46.1-46.4v0 C216.9,101.5,237.5,80.6,262.9,80.6z M190.5,194.4h93.3c21.9,0,15.5,32,15.2,32l0.5-4c-9.1,43-20.8,112.5-20.8,112.5 c-1.8,8.2-3.1,11.9-4.4,19.2c-1.1,7.3-1.8,13.9-1.8,20.3c0,6.8,1.5,11.9,4.2,15.4c2.7,3.7,6.6,5.5,11.5,5.5c4.8,0,9.1-0.9,13-2.7 c5.5-2.4,14.6-10.1,21.2-10.1c2,0,3.7,0.7,5.1,2.7c7.1,10.1-7.3,20.8-13.9,26.3c-10,8.2-21.8,14.1-34.4,17.2 c-6.8,1.8-23.6,2.7-31.8,2.7c-17.4,0-30.5-4.2-39.9-12.4c-9.1-8.2-18.5-19.6-18.5-34.4c0.1-7.7,0.7-15.4,1.8-23l-0.4,1.8 c0.5,0,18.8-105.9,18.8-105.9c0.9-3.9,1.7-7.9,2.2-11.9l0.7-4.8c0.6-4.3,0.2-8.7-1.1-12.8c-0.7-2.4-2.2-4.5-4.2-6 c-2.2-1.4-4.7-2.3-7.3-2.6c-3.6-0.5-7.3-0.7-11-0.7c0,0-15.4-2.6-15.4-12.8C173.3,195.5,185.4,194.4,190.5,194.4L190.5,194.4z M190.7,361.5v-0.4V361.5z M256,0C114.6,0,0,114.6,0,256s114.6,256,256,256s256-114.6,256-256S397.4,0,256,0z"/> </svg>
