<svg xmlns="http://www.w3.org/2000/svg"  viewBox="0 0 512 512">
    <path d="M341.3,256c0-47-38.3-85.3-85.3-85.3S170.7,209,170.7,256s38.3,85.3,85.3,85.3S341.3,303,341.3,256z M387.3,256
	c0,72.7-58.7,131.3-131.3,131.3S124.7,328.7,124.7,256S183.4,124.7,256,124.7S387.3,183.3,387.3,256z M423.3,119.3
	c0,17-13.7,30.7-30.7,30.7c-17,0-30.7-13.7-30.7-30.7s13.7-30.7,30.7-30.7C409.7,88.7,423.3,102.3,423.3,119.3z M256,46
	c-37.3,0-117.3-3-151,10.3C93.3,61,84.7,66.7,75.7,75.7S61,93.4,56.4,105C43,138.7,46,218.7,46,256s-3,117.3,10.3,151
	c4.7,11.7,10.3,20.3,19.3,29.3c9,9,17.7,14.7,29.3,19.3C138.7,469,218.7,466,256,466s117.3,3,151-10.3c11.7-4.7,20.3-10.3,29.3-19.3
	c9-9,14.7-17.7,19.3-29.3C469,373.3,466,293.3,466,256s3-117.3-10.3-151c-4.7-11.7-10.3-20.3-19.3-29.3c-9-9-17.7-14.7-29.4-19.4
	C373.3,43,293.3,46,256,46z M512,256c0,35.3,0.3,70.3-1.7,105.7c-2,41-11.3,77.3-41.3,107.3c-30,30-66.3,39.3-107.3,41.3
	c-35.3,2-70.3,1.7-105.7,1.7s-70.3,0.3-105.7-1.7C109.3,508.3,73,499,43,469C13,439,3.7,402.7,1.7,361.7C-0.3,326.3,0,291.3,0,256
	s-0.3-70.3,1.7-105.7C3.7,109.3,13,73,43,43S109.3,3.7,150.3,1.7C185.7-0.3,220.7,0,256,0s70.3-0.3,105.7,1.7
	C402.7,3.7,439,13,469,43c30,30,39.3,66.3,41.3,107.3C512.3,185.7,512,220.7,512,256z"/>
</svg>
