<svg xmlns="http://www.w3.org/2000/svg" viewBox="0 0 512 460.7" > <path d="M396.4,161.3H348L230.4,460.7h50.8l25.1-69.3h131.9l25.3,69.3H512L396.4,161.3z M324.5,345.4l47.6-126.7l47.6,126.7H324.5z"/> <path d="M175.6,276.3c20,20.7,40.4,39.6,61.7,61.2l18.1-46.1c-15.4-15-33.4-32.1-49.7-48.1c39.2-45.3,66.7-89.4,85.9-151.2h77V46.1 H207.3V0h-46.1v46.1H0v46.1h247c-17.8,57-39.8,88.8-71,121.3c-22.6-24.2-41.2-49.6-53.7-75.3H76.7c13.6,35.9,37.1,69.7,68.8,105.3 c-13.1,12.5-27.5,26-43.6,41.9c-22.3,22-47.6,45.5-74.6,73.6l33.9,32.8c26.7-27.7,51.1-51.8,73.1-73.6 C149.3,303.4,162.8,289.7,175.6,276.3z"/> </svg>
