<svg xmlns="http://www.w3.org/2000/svg" viewBox="0 0 512 483.2"> <path d="M464.1,94.2H356.7v-55c0-21.6-17.6-39.2-39.2-39.2H179.4c-21.6,0-39.2,17.6-39.2,39.2v55H48c-26.4,0-48,21.6-48,48v293 c0,26.4,21.6,48,48,48h416c26.4,0,48-21.5,48-48v-293C512,115.8,490.5,94.2,464.1,94.2z M188.5,48.4h119.8v45.8H188.5V48.4z M376,307.8c0,8.5-6.9,15.4-15.4,15.4h-70.1v70.1c0,8.5-6.9,15.4-15.4,15.4h-38.2c-8.5,0-15.4-6.9-15.4-15.4v-70.1h-70.1 c-8.5,0-15.4-6.9-15.4-15.4v-38.2c0-8.5,6.9-15.4,15.4-15.4h70.1v-70.1c0-8.5,6.9-15.4,15.4-15.4h38.2c8.5,0,15.4,6.9,15.4,15.4 v70.1h70.1c8.5,0,15.4,6.9,15.4,15.4V307.8z"/> </svg>
