<svg xmlns="http://www.w3.org/2000/svg" viewBox="0 0 378.1 512" > <g> <path d="M235.7,358.4L235.7,358.4c0,0-27.6,7.2-60.8,13.1v55c45-12.9,75.2-31.9,76-32.1c11.8-8.2,15.2-14.9,10.4-25.6 C256.9,358.9,249.2,355.6,235.7,358.4z"/> <path d="M189.5,481c-11-4.1-23.1-6.7-32.1-6.9l0-136.8c-5.5,1.2-10.9,2.3-16.1,3.4c-8.2,1.6-16.1,3.5-23.4,5.5V474 c-9.1,0.1-21.4,2.7-32.7,7c-10.7,4.8-22.5,9.2-24,23.2c0,2.1,0.9,4.1,2.3,5.6c1.5,1.5,3.5,2.3,5.6,2.3h137c2.1,0,4.1-0.8,5.6-2.3 c1.5-1.5,2.3-3.5,2.3-5.6C212.4,490,200.4,485.8,189.5,481z"/> <path d="M157.4,242.5v-25.7c55.9-5.1,101.5-30.8,114.4-68c0.8-2.4,0.4-5-1.1-7.1c-1.4-2.1-3.8-3.3-6.3-3.3H10.9 c-2.5,0-4.9,1.2-6.4,3.3c-1.4,2-1.9,4.7-1.1,7.1c12.9,37.3,58.5,62.9,114.4,68v33.6C130.6,247.9,143.9,245.2,157.4,242.5z"/> <path d="M35.6,102.8c-0.9,0.6-1.2,1.9-0.7,2.8c0.5,1,1.7,1.4,2.8,1l22-8.1l-10.8,21.4c-0.5,1-0.2,2.3,0.8,2.9 c0.5,0.3,1.1,0.4,1.7,0.3c0.5-0.1,0.9-0.4,1.3-0.8c17.8-21.2,41.2-33,51.3-37.4c-6.4-3-11.9-7.3-16.6-12.9 C66.5,80,35.7,102.7,35.6,102.8z"/> <path d="M256.9,11.3C225,4,204.6-0.2,171.8,0c-32.5,0.2-89,33.1-77.9,52C123,101.6,212.9,75,239,71.8 c39.6-4.9,83,17.4,83,66c0,30.4-20.1,71.1-56.4,91c-25.4,14-67.5,23.4-108.3,31.6c-13.5,2.7-27,5.4-39.5,7.9 c-7.1,1.5-14,3-20.5,4.4c-41.9,9.6-99.8,35.6-97.3,92.5c2.3,53,57.1,72.7,96.2,72.7c1.4,0,2.7-0.1,4.1-0.1v-59.5 c-21.2-0.9-36.8-5.8-38.2-18.4c-1.6-14.3,22.5-23.6,55.7-31.8c12.2-3,25.6-5.9,39.5-8.8c27.5-5.8,56.7-11.7,81.1-19.3 c74.1-23,139.6-76,139.6-162.5C378.1,51,311.1,23.7,256.9,11.3z M156.5,39c-9.9,1.6-16.7-0.1-18.1-5.1c-1.4-4.9,9.8-11.6,20.6-13.4 c13.1-2.2,18.2,4.4,16.9,8.6C174.5,33.3,166.4,37.3,156.5,39z"/> </g> </svg>
