<svg xmlns="http://www.w3.org/2000/svg" viewBox="0 0 512 501.7" > <path d="M441.8,187.2l-8.7-20.7C463,99,461,97,455.2,91.1L417,53.9l-3.8-3.2h-4.4c-2.3,0-9.3,0-67.3,26.3l-21.3-8.6 C292.6,0,289.8,0,281.7,0h-53.8c-8.1,0-11.2,0-36.8,68.6l-21.3,8.6c-39.2-16.5-62.2-24.9-68.4-24.9l-5.1,0.2l-41,40.2 c-6.2,5.9-8.4,7.9,23.2,74.4l-8.7,20.6C0,214.7,0,217.3,0,225.6v52.8c0,8.3,0,11.2,70.1,36.3l8.7,20.6 c-29.9,67.5-27.9,69.5-22.1,75.3l38.1,37.3l3.8,3.3h4.4c2.3,0,9.2,0,67.2-26.4l21.3,8.7c27.6,68.4,30.4,68.4,38.5,68.4H284 c8.2,0,11.1,0,36.8-68.6l21.4-8.6c39.1,16.6,62.1,25,68.2,25l5.1-0.1l41.3-40.5c5.9-5.9,7.9-8-23.5-74.2L442,314 c70-27,70-29.9,70-37.9v-52.7C512,215.1,512,212.2,441.8,187.2z M256,338.6c-49.4,0-89.5-39.4-89.5-87.8c0-48.4,40.2-87.7,89.5-87.7 c49.3,0,89.4,39.4,89.4,87.7C345.4,299.2,305.3,338.6,256,338.6z"/> </svg>
