<svg xmlns="http://www.w3.org/2000/svg" viewBox="0 0 512 416">
    <path d="M512,49.4c-18.8,8.1-39.3,14-60.4,16.2c21.8-13,38.3-33.5,46.1-57.8c-20.1,12-42.9,20.8-66.6,25.4
  C411.9,12.7,384.6,0,354.4,0c-58.2,0-104.9,47.1-104.9,105c0,8.1,1,16.3,2.6,24.1C165,124.5,87.4,82.9,35.7,19.2
  c-9.1,15.6-14.3,33.5-14.3,53c0,36.4,18.5,68.6,46.8,87.4c-17.2-0.7-33.5-5.5-47.4-13.3v1.3c0,51,36.1,93.3,84.1,103
  c-8.8,2.3-18.2,3.6-27.6,3.6c-6.8,0-13.3-0.7-19.8-1.6c13.3,41.6,52,71.8,98.1,72.8c-36.1,28.3-81.2,44.9-130.3,44.9
  c-8.8,0-16.9-0.3-25.3-1.3C46.5,398.8,101.7,416,161.1,416c193,0,298.6-159.9,298.6-298.7c0-4.5,0-9.1-0.3-13.6
  C479.8,88.7,497.7,70.2,512,49.4z"/>
</svg>
